<svg xmlns="http://www.w3.org/2000/svg" version="1.1" xmlns:xlink="http://www.w3.org/1999/xlink" xmlns:svgjs="http://svgjs.com/svgjs" width="512" height="512"><svg version="1.1" id="SvgjsSvg1007" xmlns="http://www.w3.org/2000/svg" xmlns:xlink="http://www.w3.org/1999/xlink" x="0px" y="0px" viewBox="0 0 512 512" style="enable-background:new 0 0 512 512;" xml:space="preserve">
<style type="text/css">
	.st0{fill:#496980;}
	.st1{fill:#628098;}
	.st2{fill:#F9EFEE;}
	.st3{fill:#2F3D46;}
	.st4{fill:#2F434E;}
	.st5{fill:#2F3E51;}
	.st6{fill:#343B55;}
	.st7{fill:#C23A24;}
	.st8{fill:#2C1211;}
	.st9{fill:#FFFFFF;}
</style>
<g>
	<path id="SvgjsPath1006" class="st0" d="M53.5,449.3c0,0,35.4-158.9,31-180.7S146.4,17,254.9,4.5c0,0,71.2-3.6,129.8,129.6
		c0,0,44.7,93.2,41.9,136.3c0,0,18.6,158.5,31.9,178.9C458.5,449.3,262.2,574.5,53.5,449.3z"></path>
	<path id="SvgjsPath1005" class="st1" d="M58.4,452.2c0,0,32.4-165.1,29.7-181.7c0,0,57.3-241.4,166.7-249.7c0,0,71.3-4.5,128.1,128.1
		c0,0,33.1,71.7,40.5,120.8c0,0,21.5,179.3,26.9,184.3C450.4,454,257.8,569.6,58.4,452.2z"></path>
	<path id="SvgjsPath1004" class="st2" d="M72.2,466.2c0,0,10.7-170.5,39.1-225.5s60.4-135,142.1-140.3c81.7-5.3,180.5,111.9,187,365.8
		C440.4,466.2,274.6,560.3,72.2,466.2z"></path>
	<g id="SvgjsG1003">
		<ellipse transform="matrix(0.2404 -0.9707 0.9707 0.2404 159.5011 365.009)" class="st3" cx="313" cy="80.6" rx="9.4" ry="5.3"></ellipse>
		<ellipse transform="matrix(0.9552 -0.2961 0.2961 0.9552 -14.7584 62.4786)" class="st4" cx="198.9" cy="80" rx="5.3" ry="9.4"></ellipse>
	</g>
	<g id="SvgjsG1002">
		
			<ellipse transform="matrix(0.2404 -0.9707 0.9707 0.2404 -179.5503 278.4905)" class="st5" cx="88.2" cy="254" rx="15.1" ry="7.1"></ellipse>
		
			<ellipse transform="matrix(0.9788 -0.205 0.205 0.9788 -43.3967 92.2212)" class="st6" cx="423.5" cy="255.6" rx="7.1" ry="15.1"></ellipse>
	</g>
	<path id="SvgjsPath1001" class="st7" d="M256,199.5c0,0,100.3-8.6,144.7,137S307.2,486,256.3,490.3s-161-24.1-155.7-109.4
		S180.5,195.7,256,199.5z"></path>
	<path id="SvgjsPath1000" class="st8" d="M256.7,223c0,0,99.6-17.9,133.4,125.9S248,471.5,248,471.5s-163.4,7.1-124.3-127.9
		S256.7,223,256.7,223z"></path>
	<polygon class="st9" points="209.8,258.7 209.5,228.2 188.1,237.2 	"></polygon>
	<polygon class="st9" points="233.1,252.7 240.4,223.1 217.4,226.5 	"></polygon>
	<polygon class="st9" points="259.4,250.2 271,222 247.8,222 	"></polygon>
	<polygon class="st9" points="284.3,251.5 299.8,225.2 276.8,221.8 	"></polygon>
	<polygon class="st9" points="315.2,441.2 312.5,471.6 334.8,464.7 	"></polygon>
	<polygon class="st9" points="269.3,447.7 257.7,475.9 281,476 	"></polygon>
	<polygon class="st9" points="243.6,445.7 230.7,473.3 253.9,474.5 	"></polygon>
	<polygon class="st9" points="320.4,270.1 346.4,254.3 327.7,240.4 	"></polygon>
	<polygon class="st9" points="301.8,257 326,238.4 305.8,226.7 	"></polygon>
	<polygon class="st9" points="217.7,442.7 201.1,468.3 224,472.6 	"></polygon>
	<polygon class="st9" points="192.1,273.3 184,244 165.6,258.2 	"></polygon>
	<polygon class="st9" points="171.2,427.3 146.2,444.8 165.7,457.4 	"></polygon>
	<polygon class="st9" points="191.5,435.9 172,459.3 194.2,466.3 	"></polygon>
	<polygon class="st9" points="294.2,445.7 285.3,474.9 308.4,472.8 	"></polygon>
	<polygon class="st9" points="336.3,433.3 338.9,463.7 359.6,453.1 	"></polygon>
	<polygon class="st9" points="180,287.8 164.1,261.7 150.3,280.4 	"></polygon>
	<polygon class="st9" points="332.6,284.2 362.1,276.6 348.2,257.9 	"></polygon>
</g>
</svg><style>@media (prefers-color-scheme: light) { :root { filter: none; } }
</style></svg>