<?xml version="1.0" encoding="utf-8"?>
<!-- Generator: Adobe Illustrator 28.3.0, SVG Export Plug-In . SVG Version: 6.00 Build 0)  -->
<svg version="1.1" id="shark" xmlns="http://www.w3.org/2000/svg" xmlns:xlink="http://www.w3.org/1999/xlink" x="0px" y="0px"
	 viewBox="0 0 512 512" style="enable-background:new 0 0 512 512;" xml:space="preserve">
<style type="text/css">
	.st0{fill:#496980;}
	.st1{fill:#628098;}
	.st2{fill:#F9EFEE;}
	.st3{fill:#2F3D46;}
	.st4{fill:#2F434E;}
	.st5{fill:#2F3E51;}
	.st6{fill:#343B55;}
	.st7{fill:#C23A24;}
	.st8{fill:#2C1211;}
	.st9{fill:#FFFFFF;}
</style>
<g>
	<path id="outer" class="st0" d="M69,452.8c0,0,32.7-146.8,28.6-166.9C93.5,265.8,154.8,53.6,255,42c0,0,65.8-3.3,119.9,119.7
		c0,0,41.3,86.1,38.7,125.9c0,0,17.2,146.4,29.5,165.2C443,452.8,261.7,568.4,69,452.8z"/>
	<path id="mid" class="st1" d="M73.5,455.5c0,0,29.9-152.5,27.4-167.8c0,0,52.9-223,154-230.6c0,0,65.9-4.2,118.3,118.3
		c0,0,30.6,66.2,37.4,111.6c0,0,19.9,165.6,24.8,170.2C435.5,457.2,257.7,563.9,73.5,455.5z"/>
	<path id="inner" class="st2" d="M86.2,468.4c0,0,9.9-157.5,36.1-208.3s55.8-124.7,131.2-129.6c75.5-4.9,166.7,103.3,172.7,337.8
		C426.3,468.4,273.2,555.3,86.2,468.4z"/>
	<g id="nostrils">
		
			<ellipse transform="matrix(0.2404 -0.9707 0.9707 0.2404 125.4763 384.8471)" class="st3" cx="308.6" cy="112.3" rx="8.7" ry="4.9"/>
		
			<ellipse transform="matrix(0.9552 -0.2961 0.2961 0.9552 -23.9696 65.1994)" class="st4" cx="203.3" cy="111.7" rx="4.9" ry="8.7"/>
	</g>
	<g id="eyes">
		
			<ellipse transform="matrix(0.2404 -0.9707 0.9707 0.2404 -187.6494 304.9744)" class="st5" cx="101" cy="272.4" rx="13.9" ry="6.6"/>
		
			<ellipse transform="matrix(0.9788 -0.205 0.205 0.9788 -47.4262 90.0114)" class="st6" cx="410.7" cy="273.9" rx="6.6" ry="13.9"/>
	</g>
	<path id="gums" class="st7" d="M256,222.1c0,0,92.6-7.9,133.6,126.5s-86.4,138.1-133.4,142s-148.7-22.3-143.8-101
		S186.3,218.6,256,222.1z"/>
	<path id="mouth" class="st8" d="M256.6,243.8c0,0,92-16.5,123.2,116.3S248.6,473.3,248.6,473.3s-150.9,6.6-114.8-118.1
		S256.6,243.8,256.6,243.8z"/>
	<polygon class="st9" points="213.3,276.8 213.1,248.6 193.3,256.9 	"/>
	<polygon class="st9" points="234.9,271.2 241.6,243.9 220.3,247 	"/>
	<polygon class="st9" points="259.1,268.9 269.9,242.9 248.4,242.9 	"/>
	<polygon class="st9" points="282.1,270.1 296.5,245.8 275.2,242.7 	"/>
	<polygon class="st9" points="310.7,445.3 308.2,473.4 328.8,467 	"/>
	<polygon class="st9" points="268.3,451.3 257.6,477.4 279.1,477.5 	"/>
	<polygon class="st9" points="244.5,449.5 232.6,475 254.1,476.1 	"/>
	<polygon class="st9" points="315.5,287.3 339.5,272.7 322.2,259.9 	"/>
	<polygon class="st9" points="298.3,275.2 320.7,258 302,247.2 	"/>
	<polygon class="st9" points="220.6,446.7 205.3,470.4 226.4,474.3 	"/>
	<polygon class="st9" points="197,290.3 189.5,263.2 172.5,276.3 	"/>
	<polygon class="st9" points="177.7,432.5 154.6,448.7 172.6,460.3 	"/>
	<polygon class="st9" points="196.4,440.4 178.4,462.1 198.9,468.5 	"/>
	<polygon class="st9" points="291.3,449.5 283.1,476.5 304.4,474.5 	"/>
	<polygon class="st9" points="330.2,438 332.6,466.1 351.7,456.3 	"/>
	<polygon class="st9" points="185.8,303.7 171.1,279.6 158.4,296.8 	"/>
	<polygon class="st9" points="326.7,300.3 354,293.3 341.2,276 	"/>
</g>
</svg>
